*******************************************************************************
                       Mold! (2012) DVDRip RadioResearch
*******************************************************************************

-------------------------------------------------------------------------------
                              General Information
-------------------------------------------------------------------------------
Type.................: Movie



Video Format.........: AVI
Video Bitrate........: 1248
Resolution...........: 720 x 404
Color................: 8 bit
FPS..................: 23.976
Source...............: DVD 16x9
Original Format......: NTSC
Genre................: Horror / Sci-Fi
IMDb Rating..........: 6.2
Movie Information....: http://www.imdb.com/title/tt1367236/

-------------------------------------------------------------------------------
                               Post Information
-------------------------------------------------------------------------------
Posted by............: RadioResearch
Posted on............: 5/23/2013

-------------------------------------------------------------------------------
                                 Release Notes
-------------------------------------------------------------------------------
SEEDBOX SUPPORTED!!

Set in 1984, when the war on drugs was at its height, the story concerns a 
strain of mold developed by the government to wipe out Colombian coca fields. 
Unfortunately, during a demonstration, the mold gets out of control and proves 
to be deadly to more than just vegetation.

Enjoy!
RadioResearch

General
Complete name                            : G:Mold! (2012) DVDRip - 
RadioResearchMOLD.{RadioResearch}.avi
Format                                   : AVI
Format/Info                              : Audio Video Interleave
File size                                : 751 MiB
Duration                                 : 1h 24mn
Overall bit rate                         : 1 248 Kbps
Movie name                               : MOLD.Title1.DVDRip
Writing application                      : Lavf53.32.100
Original source form/Name                : MOLD

Video
ID                                       : 0
Format                                   : MPEG-4 Visual
Format profile                           : Advanced Simple@L5
Format settings, BVOP                    : 2
Format settings, QPel                    : No
Format settings, GMC                     : No warppoints
Format settings, Matrix                  : Default (H.263)
Muxing mode                              : Packed bitstream
Codec ID                                 : XVID
Codec ID/Hint                            : XviD
Duration                                 : 1h 24mn
Bit rate                                 : 1 045 Kbps
Width                                    : 720 pixels
Height                                   : 404 pixels
Display aspect ratio                     : 16:9
Frame rate                               : 23.976 fps
Color space                              : YUV
Chroma subsampling                       : 4:2:0
Bit depth                                : 8 bits
Scan type                                : Progressive
Compression mode                         : Lossy
Bits/(Pixel*Frame)                       : 0.150
Stream size                              : 629 MiB (84%)
Writing library                          : XviD 64

Audio
ID                                       : 1
Format                                   : AC-3
Format/Info                              : Audio Coding 3
Mode extension                           : CM (complete main)
Format settings, Endianness              : Big
Codec ID                                 : 2000
Duration                                 : 1h 24mn
Bit rate mode                            : Constant
Bit rate                                 : 192 Kbps
Channel(s)                               : 2 channels
Channel positions                        : Front: L R
Sampling rate                            : 48.0 KHz
Bit depth                                : 16 bits
Compression mode                         : Lossy
Stream size                              : 116 MiB (15%)
Alignment                                : Aligned on interleaves
Interleave, duration                     : 32 ms (0.77 video frame)

AVI FILE MD5 HAS  bea84d2a57e894ac0fd18fd4111ae1ec
^^^^^^^^^^^^^^^^^^^^^^^^^^^^^^^^^^^^^^^^^^^^^^^^^^
You *know* why!



-------------------------------------------------------------------------------
Generated with Cool NFO Creator - http://fly.to/coolbeans
-------------------------------------------------------------------------------
